<svg width="38" height="38" viewBox="0 0 38 38" fill="none" xmlns="http://www.w3.org/2000/svg">
<path d="M15.0706 29.7349L11.6816 33.0249C10.7929 33.9127 9.58758 34.4115 8.3308 34.4115C7.07403 34.4115 5.86872 33.9127 4.98005 33.0249C4.09137 32.1372 3.59212 30.9331 3.59212 29.6775C3.59212 28.422 4.09137 27.2179 4.98005 26.3301L13.6729 17.6269C14.5261 16.7717 15.6757 16.277 16.8839 16.2449C18.092 16.2129 19.2663 16.646 20.1638 17.4547L20.3935 17.646C20.7566 18.0011 21.246 18.1976 21.7541 18.1922C22.2622 18.1868 22.7474 17.98 23.1029 17.6173C23.4583 17.2546 23.655 16.7657 23.6496 16.2581C23.6442 15.7505 23.4372 15.2658 23.0741 14.9107C22.9661 14.7711 22.851 14.637 22.7295 14.509C21.095 13.0884 18.9811 12.3415 16.816 12.4196C14.6509 12.4978 12.5965 13.3951 11.0688 14.9298L2.26115 23.6331C0.764521 25.2605 -0.0448987 27.4026 0.00192379 29.612C0.0487463 31.8215 0.948191 33.9274 2.51242 35.4901C4.07665 37.0528 6.18472 37.9513 8.39638 37.9981C10.608 38.0449 12.7523 37.2362 14.3813 35.7411L17.6938 32.5085C18.0208 32.152 18.2006 31.6851 18.197 31.2015C18.1933 30.718 18.0065 30.2538 17.6741 29.9023C17.3417 29.5508 16.8883 29.3382 16.4053 29.3071C15.9223 29.2761 15.4454 29.4289 15.0706 29.7349V29.7349ZM35.5389 2.49661C33.9282 0.897523 31.7497 0 29.4789 0C27.2081 0 25.0295 0.897523 23.4188 2.49661L20.1063 5.72925C19.7793 6.0857 19.5995 6.55267 19.6031 7.0362C19.6068 7.51973 19.7936 7.98394 20.126 8.33541C20.4584 8.68689 20.9118 8.89955 21.3948 8.93061C21.8778 8.96167 22.3547 8.80882 22.7295 8.50281L26.0419 5.21279C26.9306 4.325 28.1359 3.82625 29.3927 3.82625C30.6495 3.82625 31.8548 4.325 32.7435 5.21279C33.6321 6.10058 34.1314 7.30468 34.1314 8.5602C34.1314 9.81572 33.6321 11.0198 32.7435 11.9076L24.0506 20.6108C23.1974 21.466 22.0478 21.9608 20.8396 21.9928C19.6315 22.0248 18.4572 21.5917 17.5597 20.783L17.33 20.5917C16.9669 20.2366 16.4775 20.0401 15.9694 20.0455C15.4613 20.0509 14.9761 20.2577 14.6207 20.6204C14.2652 20.9831 14.0685 21.4721 14.0739 21.9797C14.0793 22.4873 14.2863 22.9719 14.6494 23.327C14.7885 23.4691 14.9355 23.6032 15.0898 23.7287C16.7262 25.145 18.8392 25.8891 21.003 25.811C23.1668 25.733 25.2205 24.8385 26.7504 23.3079L35.4624 14.6047C37.0733 13.0057 37.9855 10.835 37.9998 8.56641C38.0142 6.29786 37.1295 4.11578 35.5389 2.49661V2.49661Z" fill="#FFA800"/>
</svg>
