<svg width="150" height="40" viewBox="0 0 150 40" fill="none" xmlns="http://www.w3.org/2000/svg">
<path d="M10.1099 28.5089C7.22006 31.3812 2.32576 31.3698 0.958919 27.5416C0.69131 26.7921 0.477347 26.0214 0.319978 25.2351C-0.322557 22.0244 0.0072152 18.6965 1.2676 15.672C2.52797 12.6477 4.66235 10.0627 7.40082 8.24401C10.1393 6.42532 13.3589 5.45459 16.6524 5.45459C19.9459 5.45459 23.1655 6.42532 25.9039 8.24401C28.6425 10.0627 30.7768 12.6477 32.0372 15.6721C33.2976 18.6965 33.6273 22.0244 32.9848 25.2351C32.8275 26.0214 32.6135 26.7921 32.3458 27.5416C30.979 31.3698 26.0847 31.3812 23.1948 28.5089L18.7339 24.075C18.3077 23.6514 18.3518 22.9528 18.4694 22.3652C18.5408 22.0081 18.5041 21.6379 18.3639 21.3014C18.2236 20.9649 17.9863 20.6773 17.6816 20.4751C17.377 20.2728 17.0188 20.1648 16.6524 20.1648C16.286 20.1648 15.9279 20.2728 15.6232 20.4751C15.3185 20.6773 15.0811 20.9649 14.9409 21.3014C14.8006 21.6379 14.764 22.0081 14.8355 22.3652C14.9531 22.9528 14.997 23.6514 14.5708 24.075L10.1099 28.5089Z" fill="#728095"/>
<path d="M46.8525 24.5349H51.3286V27.1567H43.4354V13.2137H46.8525V24.5349Z" fill="white"/>
<path d="M57.4349 27.3157C56.3425 27.3157 55.3567 27.084 54.4774 26.6205C53.6116 26.1571 52.9254 25.495 52.4192 24.6344C51.9263 23.7737 51.6798 22.7674 51.6798 21.6153C51.6798 20.4766 51.9329 19.4769 52.4391 18.6162C52.9455 17.7423 53.6382 17.0736 54.5174 16.6102C55.3966 16.1468 56.3825 15.915 57.4749 15.915C58.5673 15.915 59.5531 16.1468 60.4323 16.6102C61.3116 17.0736 62.0043 17.7423 62.5105 18.6162C63.0167 19.4769 63.2699 20.4766 63.2699 21.6153C63.2699 22.7541 63.0101 23.7604 62.4906 24.6344C61.9844 25.495 61.285 26.1571 60.3923 26.6205C59.5131 27.084 58.5273 27.3157 57.4349 27.3157ZM57.4349 24.3761C58.0876 24.3761 58.6405 24.1378 59.0935 23.6611C59.5598 23.1844 59.7929 22.5025 59.7929 21.6153C59.7929 20.7282 59.5664 20.0463 59.1135 19.5696C58.6738 19.0929 58.1276 18.8545 57.4749 18.8545C56.8088 18.8545 56.2559 19.0929 55.8163 19.5696C55.3766 20.033 55.1568 20.7149 55.1568 21.6153C55.1568 22.5025 55.37 23.1844 55.7963 23.6611C56.236 24.1378 56.7822 24.3761 57.4349 24.3761Z" fill="white"/>
<path d="M68.7196 15.915C69.5056 15.915 70.1918 16.0739 70.7779 16.3917C71.3773 16.7095 71.837 17.1266 72.1568 17.643V16.0739H75.5738V27.1369C75.5738 28.1565 75.3673 29.0768 74.9543 29.8976C74.5546 30.7319 73.9352 31.3939 73.096 31.8838C72.27 32.3738 71.2375 32.6188 69.9986 32.6188C68.3467 32.6188 67.0078 32.2282 65.982 31.4469C64.9563 30.6789 64.37 29.6328 64.2235 28.3087H67.6006C67.7072 28.7324 67.9603 29.0635 68.36 29.3019C68.7596 29.5534 69.2526 29.6792 69.8387 29.6792C70.5448 29.6792 71.1042 29.4739 71.5173 29.0635C71.9436 28.6663 72.1568 28.0241 72.1568 27.1369V25.5679C71.8237 26.0842 71.3641 26.508 70.7779 26.839C70.1918 27.1568 69.5056 27.3157 68.7196 27.3157C67.8005 27.3157 66.9678 27.084 66.2218 26.6205C65.4758 26.1438 64.8829 25.4751 64.4434 24.6144C64.0171 23.7406 63.8039 22.7343 63.8039 21.5955C63.8039 20.4567 64.0171 19.4571 64.4434 18.5964C64.8829 17.7357 65.4758 17.0736 66.2218 16.6102C66.9678 16.1468 67.8005 15.915 68.7196 15.915ZM72.1568 21.6153C72.1568 20.7679 71.917 20.0992 71.4373 19.6093C70.9711 19.1194 70.3982 18.8744 69.7188 18.8744C69.0394 18.8744 68.4599 19.1194 67.9803 19.6093C67.514 20.086 67.2809 20.7481 67.2809 21.5955C67.2809 22.4429 67.514 23.1182 67.9803 23.6214C68.4599 24.1113 69.0394 24.3563 69.7188 24.3563C70.3982 24.3563 70.9711 24.1113 71.4373 23.6214C71.917 23.1314 72.1568 22.4628 72.1568 21.6153Z" fill="white"/>
<path d="M82.522 27.3157C81.4296 27.3157 80.4438 27.084 79.5646 26.6205C78.6987 26.1571 78.0125 25.495 77.5063 24.6344C77.0135 23.7737 76.767 22.7674 76.767 21.6153C76.767 20.4766 77.02 19.4769 77.5264 18.6162C78.0326 17.7423 78.7253 17.0736 79.6045 16.6102C80.4838 16.1468 81.4696 15.915 82.562 15.915C83.6544 15.915 84.6402 16.1468 85.5194 16.6102C86.3987 17.0736 87.0914 17.7423 87.5976 18.6162C88.1039 19.4769 88.357 20.4766 88.357 21.6153C88.357 22.7541 88.0973 23.7604 87.5777 24.6344C87.0715 25.495 86.3721 26.1571 85.4795 26.6205C84.6003 27.084 83.6144 27.3157 82.522 27.3157ZM82.522 24.3761C83.1748 24.3761 83.7276 24.1378 84.1806 23.6611C84.6469 23.1844 84.88 22.5025 84.88 21.6153C84.88 20.7282 84.6535 20.0463 84.2006 19.5696C83.7609 19.0929 83.2147 18.8545 82.562 18.8545C81.8959 18.8545 81.343 19.0929 80.9034 19.5696C80.4638 20.033 80.244 20.7149 80.244 21.6153C80.244 22.5025 80.4572 23.1844 80.8835 23.6611C81.3231 24.1378 81.8693 24.3761 82.522 24.3761Z" fill="white"/>
<path d="M91.2887 14.922C90.6892 14.922 90.1964 14.7498 89.81 14.4056C89.437 14.0481 89.2505 13.6111 89.2505 13.0947C89.2505 12.5651 89.437 12.1281 89.81 11.7838C90.1964 11.4263 90.6892 11.2476 91.2887 11.2476C91.8749 11.2476 92.3545 11.4263 92.7275 11.7838C93.1138 12.1281 93.307 12.5651 93.307 13.0947C93.307 13.6111 93.1138 14.0481 92.7275 14.4056C92.3545 14.7498 91.8749 14.922 91.2887 14.922ZM92.9872 16.074V27.1568H89.5702V16.074H92.9872Z" fill="white"/>
<path d="M98.2809 17.643C98.6138 17.1266 99.0735 16.7095 99.66 16.3917C100.246 16.0739 100.933 15.915 101.718 15.915C102.638 15.915 103.47 16.1468 104.216 16.6102C104.962 17.0736 105.549 17.7357 105.974 18.5964C106.414 19.4571 106.634 20.4567 106.634 21.5955C106.634 22.7343 106.414 23.7406 105.974 24.6144C105.549 25.4751 104.962 26.1438 104.216 26.6205C103.47 27.084 102.638 27.3157 101.718 27.3157C100.945 27.3157 100.26 27.1568 99.66 26.839C99.0735 26.5212 98.6138 26.1107 98.2809 25.6076V32.44H94.8641V16.0739H98.2809V17.643ZM103.157 21.5955C103.157 20.7481 102.917 20.086 102.437 19.6093C101.971 19.1194 101.392 18.8744 100.699 18.8744C100.02 18.8744 99.4403 19.1194 98.9603 19.6093C98.4948 20.0992 98.2616 20.7679 98.2616 21.6153C98.2616 22.4628 98.4948 23.1314 98.9603 23.6214C99.4403 24.1113 100.02 24.3563 100.699 24.3563C101.379 24.3563 101.958 24.1113 102.437 23.6214C102.917 23.1182 103.157 22.4429 103.157 21.5955Z" fill="white"/>
<path d="M112.364 27.3157C111.391 27.3157 110.525 27.1501 109.765 26.8192C109.006 26.4881 108.406 26.0379 107.967 25.4685C107.528 24.8859 107.281 24.2371 107.228 23.522H110.605C110.645 23.906 110.825 24.2172 111.144 24.4555C111.465 24.6939 111.857 24.8131 112.324 24.8131C112.75 24.8131 113.076 24.7336 113.302 24.5747C113.542 24.4026 113.662 24.1841 113.662 23.9193C113.662 23.6015 113.496 23.3698 113.163 23.2241C112.83 23.0652 112.29 22.8932 111.544 22.7077C110.745 22.5224 110.079 22.3304 109.546 22.1317C109.013 21.9199 108.554 21.5955 108.167 21.1585C107.78 20.7084 107.588 20.1058 107.588 19.3512C107.588 18.7155 107.761 18.1396 108.107 17.6231C108.466 17.0935 108.986 16.6764 109.666 16.3718C110.358 16.0673 111.178 15.915 112.124 15.915C113.522 15.915 114.621 16.2593 115.421 16.9478C116.234 17.6364 116.7 18.55 116.82 19.6888H113.662C113.609 19.3048 113.436 19.0003 113.143 18.7751C112.863 18.55 112.49 18.4375 112.024 18.4375C111.624 18.4375 111.317 18.5169 111.105 18.6758C110.892 18.8214 110.785 19.0267 110.785 19.2915C110.785 19.6093 110.952 19.8477 111.285 20.0066C111.631 20.1655 112.163 20.3244 112.883 20.4832C113.709 20.6951 114.381 20.907 114.901 21.1188C115.421 21.3174 115.874 21.6484 116.26 22.1119C116.659 22.5621 116.867 23.1711 116.88 23.9392C116.88 24.588 116.693 25.1706 116.32 25.687C115.961 26.1902 115.434 26.5874 114.741 26.8787C114.062 27.1701 113.269 27.3157 112.364 27.3157Z" fill="white"/>
<path d="M129.381 16.0739V27.1567H125.964V25.6472C125.618 26.1371 125.145 26.5344 124.545 26.8389C123.959 27.1302 123.307 27.2759 122.587 27.2759C121.734 27.2759 120.981 27.0905 120.329 26.7197C119.676 26.3357 119.17 25.7862 118.811 25.0712C118.451 24.3562 118.271 23.5154 118.271 22.5487V16.0739H121.667V22.0919C121.667 22.8334 121.861 23.4094 122.247 23.8199C122.633 24.2304 123.153 24.4356 123.806 24.4356C124.472 24.4356 124.998 24.2304 125.384 23.8199C125.771 23.4094 125.964 22.8334 125.964 22.0919V16.0739H129.381Z" fill="white"/>
<path d="M145.464 15.9547C146.849 15.9547 147.948 16.3718 148.761 17.206C149.587 18.0402 150 19.1987 150 20.6818V27.1567H146.603V21.1387C146.603 20.4236 146.41 19.8741 146.023 19.4901C145.65 19.0928 145.131 18.8942 144.464 18.8942C143.799 18.8942 143.272 19.0928 142.886 19.4901C142.513 19.8741 142.327 20.4236 142.327 21.1387V27.1567H138.929V21.1387C138.929 20.4236 138.736 19.8741 138.35 19.4901C137.977 19.0928 137.457 18.8942 136.791 18.8942C136.125 18.8942 135.599 19.0928 135.213 19.4901C134.839 19.8741 134.653 20.4236 134.653 21.1387V27.1567H131.236V16.0739H134.653V17.4642C135 17.0008 135.453 16.6366 136.012 16.3718C136.572 16.0937 137.204 15.9547 137.91 15.9547C138.75 15.9547 139.496 16.1334 140.148 16.491C140.814 16.8485 141.334 17.3583 141.707 18.0203C142.093 17.4112 142.62 16.9147 143.286 16.5307C143.952 16.1467 144.678 15.9547 145.464 15.9547Z" fill="white"/>
</svg>
