<svg width="150" height="40" viewBox="0 0 150 40" fill="none" xmlns="http://www.w3.org/2000/svg">
<path d="M27.439 0.909058C25.0368 0.909058 22.658 1.39115 20.4387 2.32766C18.2193 3.26427 16.2028 4.63697 14.5041 6.36749C12.8055 8.09811 11.4581 10.1525 10.5388 12.4136C9.61954 14.6746 9.14633 17.0981 9.14633 19.5454C9.14633 21.9927 9.61954 24.4162 10.5388 26.6773C11.4581 28.9384 12.8055 30.9927 14.5041 32.7233C16.2028 34.4539 18.8172 35.427 21.0366 36.3636C23.2559 37.3001 25.0368 38.1818 27.439 38.1818V29.7306C26.2379 29.7306 24.8902 29.1047 23.7805 28.6363C22.6708 28.1681 21.8209 26.9996 20.9716 26.1344C20.1223 25.2691 19.4486 24.2419 18.9889 23.1114C18.5292 21.9808 18.2927 21.2237 18.2927 20C18.2927 18.7762 18.5292 17.11 18.9889 15.9795C19.4486 14.849 20.1223 13.8217 20.9716 12.9565C21.8209 12.0912 22.8292 11.4048 23.9388 10.9366C25.0485 10.4682 26.2379 10.2272 27.439 10.2272V0.909058Z" fill="white"/>
<path d="M27.8964 25.4545C31.1798 25.4545 33.8415 22.809 33.8415 19.5454C33.8415 16.2819 31.1798 13.6364 27.8964 13.6364C24.6129 13.6364 21.9512 16.2819 21.9512 19.5454C21.9512 22.809 24.6129 25.4545 27.8964 25.4545Z" fill="white"/>
<path d="M9.14633 20C9.14633 22.3876 9.63137 24.752 10.5736 26.9579C11.5159 29.1638 12.897 31.1681 14.638 32.8565C16.3792 34.5448 18.4461 35.8841 20.721 36.7978C22.9958 37.7115 25.4341 38.1818 27.8963 38.1818C30.3586 38.1818 32.7968 37.7115 35.0717 36.7978C37.3465 35.8841 39.4134 34.5448 41.1546 32.8565C42.8957 31.1681 44.2768 29.1638 45.2191 26.9579C46.1613 24.752 46.6463 22.3876 46.6463 20H37.2713C37.2713 21.1939 37.0289 22.376 36.5577 23.479C36.0865 24.5819 35.396 25.5841 34.5255 26.4283C33.6549 27.2724 32.6214 27.942 31.484 28.3989C30.3466 28.8558 29.1275 29.0909 27.8963 29.0909C26.6652 29.0909 25.4461 28.8558 24.3087 28.3989C23.1712 27.942 22.1377 27.2724 21.2672 26.4283C20.3967 25.5841 19.7061 24.5819 19.235 23.479C18.7638 22.376 18.5213 21.1939 18.5213 20H9.14633Z" fill="white"/>
<path d="M33.8415 20C33.8415 18.3123 33.2151 16.6937 32.1002 15.5003C30.9853 14.3068 29.4731 13.6364 27.8964 13.6364C26.3197 13.6364 24.8075 14.3068 23.6926 15.5003C22.5776 16.6937 21.9512 18.3123 21.9512 20H27.8964H33.8415Z" fill="white"/>
<path d="M56.7077 12.7273H53.9638V25.4546H56.7077V12.7273Z" fill="white"/>
<path d="M57.6223 20.9091C57.6223 23.7196 59.7893 25.4546 62.6528 25.4546C65.5163 25.4546 67.6833 23.7196 67.6833 20.9091C67.6833 18.0986 65.5163 16.3636 62.6528 16.3636C59.7893 16.3636 57.6223 18.0986 57.6223 20.9091ZM60.0602 20.9091C60.0602 19.2436 61.1437 18.272 62.6528 18.272C64.1619 18.272 65.2454 19.2436 65.2454 20.9091C65.2454 22.5746 64.1619 23.5462 62.6528 23.5462C61.1437 23.5462 60.0602 22.5746 60.0602 20.9091Z" fill="white"/>
<path d="M75.5712 16.6098V17.7875H75.396C74.8703 17.0317 74.0293 16.3636 72.5224 16.3636C70.4548 16.3636 68.5975 18.1216 68.5975 20.8287C68.5975 23.5359 70.4548 25.2938 72.5224 25.2938C74.0293 25.2938 74.8703 24.6082 75.3609 23.9227H75.5361V24.7665C75.5361 26.4541 74.5549 27.2275 73.1181 27.2275C71.6814 27.2275 70.9454 26.4541 70.6475 25.452L68.6676 26.3134C69.1232 27.6318 70.4548 29.0909 73.1532 29.0909C75.9216 29.0909 77.7439 27.6318 77.7439 24.8191V16.6098H75.5712ZM73.1882 23.3953C71.8215 23.3953 70.8053 22.4109 70.8053 20.8287C70.8053 19.2466 71.8215 18.2622 73.1882 18.2622C74.5549 18.2622 75.5712 19.2466 75.5712 20.8287C75.5712 22.4109 74.5549 23.3953 73.1882 23.3953Z" fill="white"/>
<path d="M79.5732 20.9091C79.5732 23.7196 81.7402 25.4546 84.6037 25.4546C87.4673 25.4546 89.6341 23.7196 89.6341 20.9091C89.6341 18.0986 87.4673 16.3636 84.6037 16.3636C81.7402 16.3636 79.5732 18.0986 79.5732 20.9091ZM82.0111 20.9091C82.0111 19.2436 83.0946 18.272 84.6037 18.272C86.1129 18.272 87.1964 19.2436 87.1964 20.9091C87.1964 22.5746 86.1129 23.5462 84.6037 23.5462C83.0946 23.5462 82.0111 22.5746 82.0111 20.9091Z" fill="white"/>
<path d="M91.4634 13.4336C91.4634 14.3915 92.0648 15.0489 92.8358 15.0489C93.606 15.0489 94.2073 14.3915 94.2073 13.4336C94.2073 12.4757 93.606 11.8182 92.8358 11.8182C92.0648 11.8182 91.4634 12.4757 91.4634 13.4336ZM93.8062 16.1383H91.8646V25.4546H93.8062V16.1383Z" fill="white"/>
<path d="M96.0366 29.0909H98.2447V24.3585H98.4194C98.91 25.0756 99.751 25.7567 101.258 25.7567C103.325 25.7567 105.183 23.9642 105.183 21.0602C105.183 18.1562 103.325 16.3636 101.258 16.3636C99.751 16.3636 98.91 17.0448 98.3849 17.8157H98.2091V16.6146H96.0366V29.0909ZM100.592 23.8208C99.2258 23.8208 98.2091 22.8169 98.2091 21.0602C98.2091 19.3035 99.2258 18.2996 100.592 18.2996C101.959 18.2996 102.975 19.3035 102.975 21.0602C102.975 22.8169 101.959 23.8208 100.592 23.8208Z" fill="white"/>
<path d="M107.348 19.0181C107.348 20.7183 108.874 21.3429 110.811 21.6899L111.296 21.7766C112.45 21.9847 112.971 22.245 112.971 22.8002C112.971 23.3554 112.45 23.789 111.37 23.789C110.29 23.789 109.415 23.3727 109.172 22.1235L107.012 22.644C107.33 24.4483 108.949 25.4546 111.37 25.4546C113.716 25.4546 115.244 24.431 115.244 22.6267C115.244 20.8223 113.68 20.3366 111.594 19.955L111.109 19.8682C110.141 19.6947 109.619 19.4518 109.619 18.8793C109.619 18.3588 110.104 18.0292 110.998 18.0292C111.892 18.0292 112.524 18.3761 112.748 19.313L114.871 18.7058C114.425 17.3179 113.065 16.3636 110.998 16.3636C108.8 16.3636 107.348 17.3179 107.348 19.0181Z" fill="white"/>
<path d="M125.305 25.3103V16.3636H122.904V20.9813C122.904 22.6407 122.047 23.6147 120.579 23.6147C119.283 23.6147 118.56 22.9474 118.56 21.5945V16.3636H116.158V21.7028C116.158 23.9214 117.626 25.4546 119.837 25.4546C121.57 25.4546 122.371 24.7331 122.752 23.9755H122.942V25.3103H125.305Z" fill="white"/>
<path d="M127.134 16.5079V25.4546H129.542V20.1155C129.542 18.8889 130.153 18.2035 131.261 18.2035C132.217 18.2035 132.789 18.7085 132.789 19.6826V25.4546H135.198V20.1155C135.198 18.8889 135.809 18.2035 136.917 18.2035C137.873 18.2035 138.445 18.7085 138.445 19.6826V25.4546H140.853V19.5743C140.853 17.4098 139.439 16.3636 137.681 16.3636C136.133 16.3636 135.427 17.013 134.968 17.7706H134.777C134.337 16.9229 133.554 16.3636 132.178 16.3636C130.802 16.3636 130.057 16.9408 129.695 17.6263H129.503V16.5079H127.134Z" fill="white"/>
</svg>
