<svg width="150" height="40" viewBox="0 0 150 40" fill="none" xmlns="http://www.w3.org/2000/svg">
<path d="M74.6966 26.2879H69.6439V12.8618H74.6966V26.2879ZM70.1374 25.7974H74.2032V13.3523H70.1374V25.7974ZM81.7268 26.2879H76.7759V12.8618H87.1199C88.6018 12.7426 90.0775 13.1561 91.2785 14.0271C91.7955 14.4972 92.1962 15.0797 92.4494 15.7292C92.7026 16.3786 92.8014 17.0774 92.738 17.771C92.8118 18.9696 92.4281 20.1518 91.6634 21.0814C90.7584 22.1133 89.2525 22.6449 87.188 22.6636C86.668 22.6773 82.7709 22.6636 81.7298 22.6636L81.7268 26.2879ZM77.2663 25.7974H81.2334V22.1682H81.4811C81.5314 22.1682 86.591 22.1839 87.1762 22.1682C89.0995 22.1516 90.4821 21.6778 91.2903 20.7529C91.971 19.9117 92.3091 18.8472 92.2377 17.7701C92.2984 17.1486 92.2142 16.5215 91.9918 15.9376C91.7692 15.3536 91.4145 14.8284 90.9548 14.4028C89.8412 13.6084 88.4788 13.2355 87.113 13.3513H77.2693L77.2663 25.7974ZM86.0719 19.6474H81.1999V15.9927H86.1045C86.4521 15.945 86.8063 15.9853 87.134 16.11C87.4619 16.2346 87.7527 16.4396 87.9795 16.7058C88.1852 17.0461 88.2822 17.4405 88.2578 17.8368C88.2762 18.2047 88.1963 18.5709 88.0258 18.898C87.7919 19.1785 87.4892 19.3943 87.147 19.5249C86.8048 19.6554 86.4346 19.6963 86.0719 19.6435V19.6474ZM81.6933 19.157H86.0719C86.8811 19.157 87.3824 18.9893 87.6045 18.644C87.7267 18.3931 87.7821 18.1151 87.7653 17.8368C87.7869 17.5445 87.7232 17.2523 87.5818 16.9952L87.5759 16.9863C87.341 16.643 86.8742 16.4832 86.1045 16.4832H81.6933V19.157ZM101.743 26.486C97.312 26.486 94.6673 25.3923 93.6597 23.1432C93.4948 22.7088 93.3829 22.2563 93.3262 21.7955L93.2828 21.513H98.5545L98.589 21.719C98.6296 21.9281 98.7193 22.125 98.8495 22.2938C99.0578 22.5439 99.7525 22.9637 102.058 22.9637C104.829 22.9637 104.829 22.4802 104.829 22.2202C104.829 21.7818 104.508 21.6317 102.248 21.3924L101.819 21.3522C100.968 21.2727 99.8926 21.1717 99.4012 21.1295C95.2564 20.7568 93.4061 19.4768 93.4061 16.9805C93.4061 14.3586 96.5551 12.6647 101.429 12.6647C105.405 12.6647 107.967 13.7063 109.042 15.7632C109.296 16.2417 109.468 16.7598 109.548 17.2953L109.582 17.5709H104.305L104.283 17.3493C104.262 17.176 104.188 17.0135 104.07 16.8843C103.873 16.6215 103.249 16.1869 101.313 16.1869C98.9354 16.1869 98.6077 16.4891 98.6077 16.8147C98.6077 17.2492 99.3587 17.4032 101.766 17.6592C102.769 17.7406 104.383 17.9054 104.935 17.9721C108.41 18.3468 109.96 19.5954 109.96 22.0221C109.961 24.0574 108.535 26.486 101.743 26.486ZM93.8591 22.0035C93.9085 22.3269 93.9936 22.644 94.1127 22.949C95.0304 24.998 97.5272 25.9956 101.743 25.9956C105.268 25.9956 109.471 25.309 109.471 22.0221C109.471 19.8711 108.099 18.8058 104.883 18.4596C104.33 18.3929 102.727 18.2291 101.725 18.1467C99.1594 17.8701 98.1163 17.723 98.1163 16.8147C98.1163 15.875 99.2403 15.6965 101.315 15.6965C102.954 15.6965 104.013 15.9908 104.462 16.5842C104.584 16.7304 104.677 16.899 104.734 17.0805H109.011C108.925 16.7012 108.789 16.3348 108.606 15.9908C107.62 14.1085 105.209 13.1551 101.431 13.1551C96.8571 13.1551 93.9015 14.6568 93.9015 16.9805C93.9015 19.1972 95.5604 20.2918 99.4466 20.641C99.94 20.6832 101.015 20.7842 101.867 20.8647L102.3 20.9049C104.399 21.1246 105.324 21.2619 105.324 22.2202C105.324 23.2521 104.127 23.4541 102.06 23.4541C100.147 23.4541 98.9393 23.1687 98.4726 22.6067C98.3287 22.4275 98.2201 22.2228 98.1528 22.0035H93.8591ZM119.335 26.4693C114.184 26.4693 111.342 24.3987 111.342 20.6381V12.8618H116.327V20.6381C116.327 21.9279 117.489 22.6675 119.513 22.6675C121.447 22.6675 122.648 21.8956 122.648 20.6548V12.8618H127.582V21.0501C127.587 24.4939 124.578 26.4693 119.332 26.4693H119.335ZM111.835 13.3523V20.6381C111.835 25.2854 116.531 25.9789 119.335 25.9789C122.235 25.9789 127.097 25.3384 127.097 21.0501V13.3523H123.15V20.6548C123.15 22.1751 121.725 23.1579 119.521 23.1579C117.218 23.1579 115.842 22.2163 115.842 20.6381V13.3523H111.835ZM148.492 26.2879H143.786V20.2261L141.118 26.2879H137.014L134.373 20.2379V26.2879H129.651V12.8618H135.862L139.089 20.2644L142.472 12.8618H148.498L148.492 26.2879ZM144.28 25.7974H147.998V13.3523H142.786L139.073 21.4728L135.534 13.3523H130.14V25.7974H133.876V17.878L137.329 25.8004H140.783L144.274 17.8897L144.28 25.7974ZM5.97388 13.107H1.4798V26.0426H13.8982V22.5988H5.97388V13.107ZM22.9693 12.8128C17.2328 12.8128 14.216 15.5151 14.216 19.4826C14.216 23.9652 17.3828 26.2388 22.9693 26.2388C29.1193 26.2388 31.7058 23.6023 31.7058 19.4826C31.7058 15.2993 28.7877 12.8108 22.9693 12.8108V12.8128ZM22.9525 16.1742C23.343 16.1724 23.7333 16.195 24.1209 16.2419L19.0969 21.2354C18.8592 20.701 18.7432 20.1208 18.7574 19.5366C18.7574 17.5072 19.7857 16.1722 22.9525 16.1722V16.1742ZM22.9693 22.9304C22.593 22.932 22.217 22.911 21.8433 22.8676L26.8762 17.8652C27.105 18.3908 27.2146 18.9602 27.1969 19.5327C27.1969 21.5071 26.2495 22.9284 22.9693 22.9284V22.9304ZM40.6101 21.1648H45.2354C45.1673 21.4839 45.0254 21.7828 44.8209 22.0378C43.862 22.8142 42.6382 23.1921 41.4055 23.0922C40.7849 23.1582 40.1575 23.0908 39.5655 22.8947C38.9735 22.6986 38.4307 22.3782 37.9742 21.9554C37.5065 21.2736 37.2844 20.4548 37.3436 19.6317C37.2679 18.7693 37.5095 17.9089 38.0235 17.21C38.6699 16.4841 39.7643 16.1713 41.3729 16.1713C42.3963 16.087 43.4185 16.3483 44.2742 16.9128C44.5439 17.1257 44.7455 17.412 44.8545 17.7367H49.1443C49.1131 17.2016 48.9836 16.6767 48.7624 16.1879C47.7351 14.1114 45.3469 12.8756 41.286 12.8756C37.7541 12.8756 35.3837 13.9467 34.0742 15.5621C33.2093 16.7287 32.7654 18.1511 32.814 19.5994C32.7581 21.0805 33.1906 22.5391 34.0456 23.7533C35.3393 25.4208 37.6436 26.2408 40.4127 26.2408C42.2536 26.3684 44.0821 25.8559 45.5847 24.7911L45.7012 26.0426H49.2647V18.3802H40.6101V21.1648ZM59.3788 12.8098C53.6433 12.8098 50.6255 15.5121 50.6255 19.4797C50.6255 23.9622 53.7913 26.2359 59.3788 26.2359C65.5298 26.2359 68.1163 23.5993 68.1163 19.4797C68.1163 15.2993 65.1982 12.8108 59.3788 12.8108V12.8098ZM59.363 16.1713C59.7432 16.1701 60.1232 16.1918 60.5008 16.236L55.4966 21.2129C55.2662 20.6843 55.1541 20.1125 55.168 19.5366C55.164 17.5072 56.1962 16.1722 59.363 16.1722V16.1713ZM59.3788 22.9274C58.9926 22.9291 58.6066 22.9067 58.2232 22.8607L63.2729 17.8407C63.5104 18.3733 63.6241 18.9523 63.6055 19.5346C63.6074 21.5071 62.664 22.9284 59.3788 22.9284V22.9274Z" fill="white"/>
</svg>
