<svg width="150" height="40" viewBox="0 0 150 40" fill="none" xmlns="http://www.w3.org/2000/svg">
<g clip-path="url(#clip0_11_26)">
<path d="M36.1555 7.21045H39.9005V27.5139H46.0627V30.8979H36.1555V7.21045Z" fill="#8781ED"/>
<path d="M53.1386 31.2362C51.3001 31.2362 49.8929 30.7174 48.9169 29.6796C47.941 28.6419 47.453 27.1756 47.453 25.2805V12.8278C47.453 10.9328 47.941 9.4664 48.9169 8.42867C49.8929 7.39094 51.3001 6.87207 53.1386 6.87207C54.977 6.87207 56.3842 7.39094 57.3602 8.42867C58.3362 9.4664 58.8241 10.9328 58.8241 12.8278V25.2805C58.8241 27.1756 58.3362 28.6419 57.3602 29.6796C56.3842 30.7174 54.977 31.2362 53.1386 31.2362ZM53.1386 27.8523C54.4323 27.8523 55.0792 27.074 55.0792 25.5174V12.5909C55.0792 11.0343 54.4323 10.256 53.1386 10.256C51.8448 10.256 51.1979 11.0343 51.1979 12.5909V25.5174C51.1979 27.074 51.8448 27.8523 53.1386 27.8523Z" fill="#8781ED"/>
<path d="M66.6679 31.2362C64.8522 31.2362 63.4676 30.7287 62.5143 29.7135C61.5611 28.6758 61.0844 27.1981 61.0844 25.2805V12.8278C61.0844 10.9102 61.5611 9.44384 62.5143 8.42867C63.4676 7.39094 64.8522 6.87207 66.6679 6.87207C68.4837 6.87207 69.8681 7.39094 70.8214 8.42867C71.7747 9.44384 72.2514 10.9102 72.2514 12.8278V14.8581H68.7106V12.5909C68.7106 11.0343 68.0637 10.256 66.77 10.256C65.4763 10.256 64.8295 11.0343 64.8295 12.5909V25.5513C64.8295 27.0854 65.4763 27.8523 66.77 27.8523C68.0637 27.8523 68.7106 27.0854 68.7106 25.5513V20.9153H66.8381V17.5314H72.2514V25.2805C72.2514 27.1981 71.7747 28.6758 70.8214 29.7135C69.8681 30.7287 68.4837 31.2362 66.6679 31.2362Z" fill="#8781ED"/>
<path d="M80.069 31.2362C78.2306 31.2362 76.8234 30.7174 75.8475 29.6796C74.8714 28.6419 74.3835 27.1756 74.3835 25.2805V12.8278C74.3835 10.9328 74.8714 9.4664 75.8475 8.42867C76.8234 7.39094 78.2306 6.87207 80.069 6.87207C81.9076 6.87207 83.3148 7.39094 84.2907 8.42867C85.2667 9.4664 85.7547 10.9328 85.7547 12.8278V25.2805C85.7547 27.1756 85.2667 28.6419 84.2907 29.6796C83.3148 30.7174 81.9076 31.2362 80.069 31.2362ZM80.069 27.8523C81.3628 27.8523 82.0097 27.074 82.0097 25.5174V12.5909C82.0097 11.0343 81.3628 10.256 80.069 10.256C78.7754 10.256 78.1285 11.0343 78.1285 12.5909V25.5174C78.1285 27.074 78.7754 27.8523 80.069 27.8523Z" fill="#8781ED"/>
<path d="M88.2949 7.21045H92.04V30.8979H88.2949V7.21045Z" fill="white"/>
<path d="M94.8437 7.21045H100.359C102.22 7.21045 103.616 7.70675 104.547 8.69937C105.478 9.69198 105.943 11.1471 105.943 13.0646V15.3995C105.943 17.3171 105.478 18.7721 104.547 19.7648C103.616 20.7574 102.22 21.2536 100.359 21.2536H98.589V30.8979H94.8437V7.21045ZM100.359 17.8698C100.972 17.8698 101.426 17.7005 101.721 17.3622C102.039 17.0238 102.197 16.4485 102.197 15.6364V12.8277C102.197 12.0156 102.039 11.4403 101.721 11.1019C101.426 10.7636 100.972 10.5944 100.359 10.5944H98.589V17.8698H100.359Z" fill="white"/>
<path d="M112.978 31.2362C111.163 31.2362 109.79 30.7287 108.859 29.7135C107.929 28.6758 107.463 27.1981 107.463 25.2805V23.927H111.004V25.5513C111.004 27.0854 111.651 27.8523 112.944 27.8523C113.58 27.8523 114.056 27.6718 114.374 27.3109C114.714 26.9274 114.885 26.3183 114.885 25.4836C114.885 24.491 114.658 23.6224 114.204 22.878C113.751 22.1109 112.911 21.1973 111.684 20.137C110.141 18.7834 109.063 17.5652 108.45 16.4824C107.838 15.377 107.531 14.1362 107.531 12.7601C107.531 10.8876 108.007 9.44384 108.961 8.42867C109.914 7.39094 111.299 6.87207 113.115 6.87207C114.907 6.87207 116.258 7.39094 117.166 8.42867C118.097 9.44384 118.562 10.9102 118.562 12.8278V13.8091H115.021V12.5909C115.021 11.7787 114.862 11.1922 114.545 10.8312C114.227 10.4477 113.762 10.256 113.149 10.256C111.9 10.256 111.277 11.0117 111.277 12.5232C111.277 13.3805 111.503 14.1813 111.957 14.9258C112.433 15.6702 113.285 16.5726 114.511 17.6329C116.077 18.9865 117.155 20.216 117.745 21.3214C118.335 22.4268 118.63 23.7239 118.63 25.2129C118.63 27.153 118.142 28.6419 117.166 29.6796C116.212 30.7174 114.817 31.2362 112.978 31.2362Z" fill="white"/>
<path d="M126.225 31.2362C124.409 31.2362 123.025 30.7287 122.071 29.7134C121.118 28.6758 120.642 27.1981 120.642 25.2805V7.21045H124.387V25.5513C124.387 26.3634 124.545 26.9499 124.863 27.3109C125.203 27.6718 125.681 27.8523 126.293 27.8523C126.906 27.8523 127.371 27.6718 127.689 27.3109C128.029 26.9499 128.2 26.3634 128.2 25.5513V7.21045H131.808V25.2805C131.808 27.1981 131.332 28.6758 130.378 29.7134C129.425 30.7287 128.04 31.2362 126.225 31.2362Z" fill="white"/>
<path d="M134.475 7.21045H139.821L142.204 24.1638H142.271L144.655 7.21045H150V30.8979H146.459V12.9631H146.392L143.667 30.8979H140.535L137.812 12.9631H137.744V30.8979H134.475V7.21045Z" fill="white"/>
<path d="M0 30.8979C4.60732 30.8979 8.34226 27.1855 8.34226 22.6062C8.34226 18.0268 4.60732 14.3145 0 14.3145V20.1186C1.38218 20.1186 2.50267 21.2323 2.50267 22.6062C2.50267 23.98 1.38218 25.0937 0 25.0937V30.8979Z" fill="#8781ED"/>
<path d="M27.8072 17.0784C26.3816 16.6295 24.8635 16.3873 23.2884 16.3873C15.0337 16.3873 8.34192 23.0386 8.34192 31.2433C8.34192 32.0668 8.40934 32.8747 8.53896 33.6617H17.8257C17.4942 32.923 17.3099 32.1046 17.3099 31.2433C17.3099 27.9614 19.9866 25.3009 23.2884 25.3009C25.0931 25.3009 26.711 26.0957 27.8072 27.3522V17.0784Z" fill="#041673"/>
<path d="M1.46711 6.02271C2.15874 12.2414 7.46316 17.0784 13.9042 17.0784C20.3451 17.0784 25.6495 12.2414 26.3411 6.02271H17.3922C16.8398 7.39928 15.4862 8.37201 13.9042 8.37201C12.322 8.37201 10.9686 7.39928 10.416 6.02271H1.46711Z" fill="white"/>
</g>
<defs>
<clipPath id="clip0_11_26">
<rect width="150" height="40" fill="white"/>
</clipPath>
</defs>
</svg>
