<svg width="150" height="40" viewBox="0 0 150 40" fill="none" xmlns="http://www.w3.org/2000/svg">
<path d="M50.4927 26.3636H53.7713V11.3091H50.4927V26.3636Z" fill="#A1AEBF"/>
<path d="M60.4973 26.6981C63.9259 26.6981 66.1759 24.5445 66.1759 20.739C66.1759 17.059 63.9902 14.759 60.4973 14.759C57.0688 14.759 54.8402 16.9127 54.8402 20.739C54.8402 24.4399 57.0045 26.6981 60.4973 26.6981ZM60.4973 24.1054C59.0188 24.1054 58.2045 22.9136 58.2045 20.739C58.2045 18.5436 58.9973 17.3518 60.4973 17.3518C61.9973 17.3518 62.8116 18.5645 62.8116 20.739C62.8116 22.9345 62.0188 24.1054 60.4973 24.1054Z" fill="#A1AEBF"/>
<path d="M71.5101 26.3845C72.753 26.3845 73.7816 25.8827 74.5101 24.8999V26.7818C74.5101 28.3499 73.7173 28.8727 72.5387 28.8727C71.403 28.8727 70.5244 28.329 70.3958 27.3254H67.1173C67.5244 30.0645 69.6458 31.319 72.5816 31.319C75.603 31.319 77.7887 29.7509 77.7887 26.7399V15.1145H74.5101V16.1599C73.803 15.2399 72.7958 14.759 71.5101 14.759C68.6387 14.759 66.7744 16.8499 66.7744 20.5927C66.7744 24.1681 68.5958 26.3845 71.5101 26.3845ZM72.303 23.7918C70.8887 23.7918 70.1387 22.6418 70.1387 20.5927C70.1387 18.4809 70.8887 17.3518 72.303 17.3518C73.7387 17.3518 74.5101 18.5018 74.5101 20.5718C74.5101 22.6627 73.7601 23.7918 72.303 23.7918Z" fill="#A1AEBF"/>
<path d="M84.5325 26.6981C87.961 26.6981 90.211 24.5445 90.211 20.739C90.211 17.059 88.0253 14.759 84.5325 14.759C81.1039 14.759 78.8753 16.9127 78.8753 20.739C78.8753 24.4399 81.0396 26.6981 84.5325 26.6981ZM84.5325 24.1054C83.0539 24.1054 82.2396 22.9136 82.2396 20.739C82.2396 18.5436 83.0325 17.3518 84.5325 17.3518C86.0325 17.3518 86.8467 18.5645 86.8467 20.739C86.8467 22.9345 86.0539 24.1054 84.5325 24.1054Z" fill="#A1AEBF"/>
<path d="M91.3021 13.9854H94.5811V11.3091H91.3021V13.9854ZM91.3021 26.3636H94.5811V15.1145H91.3021V26.3636Z" fill="#A1AEBF"/>
<path d="M99.4205 30.9845V25.2345C100.106 26.1963 101.092 26.6981 102.313 26.6981C105.249 26.6981 107.156 24.5445 107.156 20.7181C107.156 17.0381 105.292 14.759 102.313 14.759C101.113 14.759 100.128 15.3027 99.4205 16.2854V15.1145H96.1419V30.9845H99.4205ZM101.628 17.3518C103.021 17.3518 103.792 18.5436 103.792 20.7181C103.792 22.9136 103.042 24.1054 101.628 24.1054C100.192 24.1054 99.4205 22.8927 99.4205 20.7181C99.4205 18.5436 100.171 17.3518 101.628 17.3518Z" fill="#A1AEBF"/>
<path d="M111.093 18.2299C111.093 17.6236 111.65 17.2054 112.507 17.2054C113.664 17.2054 114.35 17.6863 114.543 18.8363H117.8C117.478 15.9927 115.378 14.759 112.614 14.759C109.528 14.759 107.964 16.5154 107.964 18.3972C107.964 22.9136 114.95 20.969 114.95 23.1436C114.95 23.8336 114.371 24.2727 113.214 24.2727C111.993 24.2727 111.114 23.7081 110.964 22.6627H107.686C108.114 25.4436 110.214 26.6981 113.128 26.6981C116.128 26.6981 118.228 25.1718 118.228 22.9554C118.228 18.5018 111.093 20.4463 111.093 18.2299Z" fill="#A1AEBF"/>
<path d="M126.307 21.5754C126.307 23.0181 125.492 24.1054 124.228 24.1054C123.071 24.1054 122.514 23.3945 122.514 21.9518V15.1145H119.235V22.6C119.235 25.4018 120.842 26.6981 123.028 26.6981C124.421 26.6981 125.557 26.1127 126.307 24.8581V26.3636H129.585V15.1145H126.307V21.5754Z" fill="#A1AEBF"/>
<path d="M131.169 26.3636H134.448V19.9027C134.448 18.4599 135.198 17.3518 136.333 17.3518C137.383 17.3518 137.898 18.0836 137.898 19.5054V26.3636H141.155V19.9027C141.155 18.4599 141.926 17.3518 143.062 17.3518C144.112 17.3518 144.605 18.0836 144.605 19.5054V26.3636H147.883V18.8572C147.883 16.0763 146.298 14.759 144.155 14.759C142.719 14.759 141.498 15.3445 140.705 16.6199C140.126 15.3654 138.969 14.759 137.598 14.759C136.269 14.759 135.176 15.3236 134.448 16.5363V15.1145H131.169V26.3636Z" fill="#A1AEBF"/>
<path d="M38.0594 30.957C41.6109 27.8624 43.7888 23.6862 43.7888 19.091C43.7888 9.55151 34.4035 1.81824 22.8261 1.81824C11.2487 1.81824 1.86336 9.55151 1.86336 19.091C1.86336 28.6304 11.2487 36.3637 22.8261 36.3637C26.1105 36.3637 29.2186 35.7413 31.986 34.6318C35.2368 36.5897 39.2196 37.9971 43.6182 37.7002C41.2944 37.1239 39.2956 34.7891 38.0594 30.957Z" fill="#728095"/>
<path d="M38.1988 19.0909C38.1988 26.12 31.3162 31.8182 22.8261 31.8182C14.336 31.8182 7.45341 26.12 7.45341 19.0909C7.45341 12.0618 14.336 6.36365 22.8261 6.36365C31.3162 6.36365 38.1988 12.0618 38.1988 19.0909Z" fill="#F7E476"/>
<path d="M32.6091 19.0909C32.6091 23.6096 28.2293 27.2727 22.8265 27.2727C17.4237 27.2727 13.0439 23.6096 13.0439 19.0909C13.0439 14.5721 17.4237 10.9091 22.8265 10.9091C28.2293 10.9091 32.6091 14.5721 32.6091 19.0909Z" fill="#A1AEBF"/>
</svg>
