<svg width="150" height="40" viewBox="0 0 150 40" fill="none" xmlns="http://www.w3.org/2000/svg">
<path d="M44.8732 12.8265H48.5244V27.4999H44.8732V12.8265ZM49.9727 21.9596C49.9727 18.3306 52.212 16.1652 55.6685 16.1652C59.1249 16.1652 61.3643 18.3306 61.3643 21.9596C61.3643 25.5886 59.1736 27.766 55.6685 27.766C52.1634 27.766 49.9727 25.6491 49.9727 21.9596ZM57.7009 21.9596C57.7009 19.9636 56.9099 18.7902 55.6685 18.7902C54.4271 18.7902 53.6482 19.9999 53.6482 21.9596C53.6482 23.9193 54.4149 25.1048 55.6685 25.1048C56.922 25.1048 57.7009 23.9918 57.7009 21.9717V21.9596ZM62.7395 28.2136H66.2447C66.4115 28.582 66.6935 28.8869 67.0488 29.0831C67.404 29.2792 67.8136 29.3562 68.2163 29.3023C69.6037 29.3023 70.334 28.5523 70.334 27.4636V25.4314H70.2609C69.9701 26.0542 69.498 26.5761 68.9058 26.9298C68.3135 27.2834 67.6282 27.4525 66.9384 27.4152C64.273 27.4152 62.5083 25.3951 62.5083 21.9233C62.5083 18.4515 64.1878 16.262 66.9871 16.262C67.6986 16.2343 68.4015 16.4234 69.0019 16.8038C69.6023 17.1844 70.0713 17.7382 70.3461 18.391V16.3709H73.9973V27.3789C73.9973 30.0281 71.6484 31.6733 68.1798 31.6733C64.9546 31.6733 62.9464 30.2338 62.7395 28.2257V28.2136ZM70.3461 21.9475C70.3461 20.1814 69.5307 19.0685 68.2406 19.0685C66.9506 19.0685 66.1595 20.1693 66.1595 21.9475C66.1595 23.7257 66.9384 24.7298 68.2406 24.7298C69.5429 24.7298 70.3461 23.7499 70.3461 21.9596V21.9475ZM75.3726 21.9475C75.3726 18.3185 77.6119 16.1531 81.0684 16.1531C84.5248 16.1531 86.7764 18.3185 86.7764 21.9475C86.7764 25.5765 84.5857 27.7539 81.0684 27.7539C77.5511 27.7539 75.3726 25.6491 75.3726 21.9596V21.9475ZM83.1008 21.9475C83.1008 19.9515 82.3098 18.7781 81.0684 18.7781C79.827 18.7781 79.1089 19.9999 79.1089 21.9717C79.1089 23.9435 79.8757 25.1168 81.1171 25.1168C82.3585 25.1168 83.1008 23.9918 83.1008 21.9717V21.9475ZM88.1638 13.7338C88.1542 13.3674 88.2543 13.0064 88.4514 12.6966C88.6485 12.3868 88.9337 12.1422 89.2708 11.9937C89.608 11.8452 89.9818 11.7995 90.3451 11.8625C90.7084 11.9255 91.0447 12.0942 91.3113 12.3474C91.5781 12.6005 91.7631 12.9267 91.8431 13.2845C91.923 13.6423 91.8943 14.0156 91.7604 14.3573C91.6267 14.6987 91.3939 14.9932 91.0915 15.2031C90.7893 15.4129 90.431 15.5289 90.0624 15.5362C89.818 15.5529 89.5728 15.5191 89.3422 15.4371C89.1114 15.3551 88.9004 15.2266 88.7221 15.0596C88.5438 14.8927 88.4021 14.6908 88.3061 14.4667C88.2099 14.2428 88.1615 14.0015 88.1638 13.758V13.7338ZM88.1638 16.3951H91.815V27.4999H88.1638V16.3951ZM105.069 21.9475C105.069 25.5765 103.45 27.6451 100.675 27.6451C99.9636 27.6904 99.2552 27.5176 98.6457 27.1498C98.0362 26.782 97.5551 26.237 97.2674 25.5886H97.1943V31.0564H93.5432V16.3709H97.1943V18.3548H97.2674C97.5417 17.6956 98.0137 17.1365 98.619 16.7534C99.2244 16.3703 99.9338 16.1818 100.651 16.2136C103.45 16.262 105.117 18.3427 105.117 21.9717L105.069 21.9475ZM101.418 21.9475C101.418 20.1814 100.602 19.0564 99.3242 19.0564C98.0463 19.0564 97.2308 20.1935 97.2187 21.9475C97.2065 23.7015 98.0463 24.8265 99.3242 24.8265C100.602 24.8265 101.418 23.7257 101.418 21.9717V21.9475ZM111.337 16.141C114.367 16.141 116.205 17.5685 116.29 19.8548H112.967C112.967 19.0685 112.31 18.5725 111.3 18.5725C110.29 18.5725 109.84 18.9596 109.84 19.5281C109.84 20.0967 110.241 20.2781 111.057 20.4475L113.393 20.9193C115.621 21.391 116.57 22.2862 116.57 23.9677C116.57 26.266 114.464 27.7418 111.361 27.7418C108.257 27.7418 106.225 26.266 106.067 24.0039H109.584C109.693 24.8265 110.351 25.3104 111.422 25.3104C112.493 25.3104 112.98 24.9596 112.98 24.3789C112.98 23.7983 112.639 23.6773 111.762 23.4959L109.657 23.0483C107.478 22.6007 106.334 21.4515 106.334 19.758C106.359 17.5806 108.318 16.1652 111.337 16.1652V16.141ZM128.753 27.4757H125.235V25.4072H125.162C124.969 26.1016 124.543 26.7095 123.954 27.1299C123.365 27.5501 122.649 27.7576 121.925 27.7177C121.37 27.749 120.815 27.6616 120.297 27.4614C119.779 27.2612 119.311 26.953 118.923 26.5573C118.536 26.1618 118.238 25.6879 118.05 25.1681C117.863 24.6483 117.789 24.0946 117.836 23.5443V16.3709H121.487V22.7096C121.487 24.0281 122.168 24.7298 123.3 24.7298C123.565 24.7302 123.828 24.6745 124.071 24.566C124.312 24.4575 124.528 24.2987 124.703 24.1006C124.877 23.9023 125.009 23.6692 125.086 23.4169C125.162 23.1644 125.185 22.8985 125.15 22.637V16.3709H128.801L128.753 27.4757ZM130.517 16.3709H134.047V18.512H134.12C134.313 17.8267 134.731 17.2246 135.305 16.8C135.88 16.3754 136.581 16.1521 137.296 16.1652C138.025 16.1073 138.748 16.3239 139.324 16.7723C139.898 17.2206 140.283 17.8675 140.4 18.5846H140.473C140.693 17.8599 141.151 17.2289 141.773 16.7909C142.393 16.3529 143.144 16.1327 143.905 16.1652C144.401 16.1487 144.896 16.2361 145.356 16.4219C145.817 16.6076 146.232 16.8877 146.576 17.2435C146.921 17.5996 147.186 18.0235 147.355 18.4879C147.523 18.9523 147.593 19.447 147.556 19.9394V27.4999H143.905V20.9072C143.905 19.6975 143.357 19.141 142.335 19.141C142.107 19.1391 141.881 19.1858 141.673 19.278C141.465 19.3702 141.278 19.5056 141.128 19.6754C140.977 19.8451 140.863 20.0449 140.796 20.2616C140.73 20.4783 140.711 20.7067 140.741 20.9314V27.4999H137.272V20.8588C137.272 19.7459 136.724 19.141 135.726 19.141C135.496 19.1412 135.267 19.1898 135.058 19.2838C134.848 19.3779 134.659 19.5152 134.507 19.6866C134.353 19.858 134.239 20.0598 134.17 20.2786C134.101 20.4973 134.08 20.728 134.108 20.9556V27.4999H130.456L130.517 16.3709Z" fill="white"/>
<path d="M34.6616 13.4921C34.0423 12.0844 33.2226 10.7726 32.2275 9.5969C30.7567 7.80699 28.9211 6.34697 26.8417 5.31295C24.7622 4.27894 22.486 3.69436 20.1629 3.5977C17.8397 3.50103 15.5224 3.89447 13.3632 4.75213C11.2041 5.60978 9.25218 6.9122 7.63597 8.57367C6.01974 10.2351 4.77585 12.218 3.98617 14.3917C3.19648 16.5654 2.87889 18.8807 3.05432 21.1851C3.22976 23.4897 3.89421 25.7311 5.00397 27.7619C6.11372 29.7928 7.64362 31.5671 9.49296 32.9679C10.6796 33.8847 11.9908 34.63 13.3875 35.1816C15.3458 35.9792 17.4416 36.39 19.558 36.3913C23.9265 36.3817 28.1129 34.6509 31.1997 31.5783C34.2864 28.5057 36.0215 24.3421 36.0247 20.0001C36.0279 17.7604 35.5638 15.5444 34.6616 13.4921ZM19.5458 6.9235C21.4464 6.92331 23.3239 7.33617 25.0469 8.13318C24.6268 8.31363 24.185 8.43966 23.7325 8.50819C22.2435 8.72241 20.8642 9.40948 19.8004 10.4669C18.7366 11.5242 18.0453 12.8952 17.8298 14.3751C17.7352 15.2051 17.3554 15.9772 16.7545 16.5613C16.1536 17.1453 15.3685 17.5053 14.5315 17.5808C13.0426 17.795 11.6633 18.4821 10.5995 19.5395C9.53565 20.5969 8.84438 21.9678 8.62885 23.4477C8.55588 24.2369 8.21711 24.9785 7.66738 25.5525C6.71887 23.5606 6.29278 21.3623 6.42875 19.1627C6.56472 16.963 7.25833 14.8332 8.44504 12.9715C9.63174 11.11 11.273 9.57695 13.216 8.51525C15.1591 7.45356 17.3408 6.89767 19.558 6.89931L19.5458 6.9235ZM9.48079 28.4679C9.62683 28.3348 9.77288 28.2138 9.91893 28.0687C11.0017 27.0253 11.6967 25.648 11.8906 24.1614C11.9692 23.3258 12.3445 22.5453 12.9494 21.9598C13.5315 21.3576 14.3149 20.9876 15.1522 20.9195C16.6412 20.7052 18.0205 20.0181 19.0843 18.9608C20.1481 17.9034 20.8394 16.5325 21.055 15.0525C21.1077 14.1786 21.4849 13.3551 22.1138 12.7421C22.7103 12.1516 23.5011 11.795 24.341 11.738C25.7088 11.551 26.9846 10.9465 27.9922 10.0082C29.1395 10.9542 30.1114 12.0923 30.8644 13.3711C30.8182 13.4331 30.7651 13.49 30.7062 13.5404C30.1253 14.1479 29.3428 14.5261 28.5033 14.605C27.0128 14.8154 25.6314 15.5013 24.5669 16.5593C23.5025 17.6174 22.8124 18.9904 22.6006 20.4719C22.5148 21.3046 22.142 22.0823 21.5454 22.6731C20.9487 23.2641 20.1649 23.6317 19.3267 23.7138C17.8334 23.9264 16.449 24.6121 15.379 25.669C14.3091 26.7261 13.6106 28.0978 13.3875 29.5808C13.322 30.1719 13.1177 30.7396 12.7912 31.238C11.5425 30.5011 10.4241 29.5653 9.48079 28.4679ZM19.5458 33.1372C18.3109 33.1385 17.0818 32.9675 15.8946 32.6292C16.3008 31.8767 16.5648 31.0567 16.6736 30.2098C16.7589 29.3789 17.13 28.6026 17.7241 28.0121C18.3183 27.4215 19.0993 27.0527 19.9353 26.9679C21.4264 26.7561 22.8085 26.07 23.8747 25.0124C24.9409 23.9549 25.634 22.5825 25.8501 21.1009C25.9355 20.27 26.3065 19.4938 26.9007 18.9032C27.4949 18.3126 28.2759 17.9438 29.1118 17.859C30.234 17.714 31.3035 17.2987 32.2275 16.6493C32.7406 18.5823 32.8013 20.6063 32.4052 22.5662C32.009 24.5261 31.1664 26.3699 29.942 27.9559C28.7176 29.5418 27.1441 30.8281 25.3419 31.7157C23.5398 32.6034 21.5571 33.069 19.5458 33.0767V33.1372Z" fill="white"/>
</svg>
